<svg
   xmlns:dc="http://purl.org/dc/elements/1.1/"
   xmlns:cc="http://creativecommons.org/ns#"
   xmlns:rdf="http://www.w3.org/1999/02/22-rdf-syntax-ns#"
   xmlns:svg="http://www.w3.org/2000/svg"
   xmlns="http://www.w3.org/2000/svg"
   xmlns:sodipodi="http://sodipodi.sourceforge.net/DTD/sodipodi-0.dtd"
   xmlns:inkscape="http://www.inkscape.org/namespaces/inkscape"
   width="450"
   height="450"
   viewBox="0 0 119.0625 119.0625"
   version="1.1"
   id="svg8"
   inkscape:version="1.0.2 (e86c870879, 2021-01-15)"
   sodipodi:docname="pet2.svg">
  <defs
     id="defs2">
    <marker
       style="overflow:visible"
       id="marker1844"
       refX="0.0"
       refY="0.0"
       orient="auto"
       inkscape:stockid="Arrow1Lstart"
       inkscape:isstock="true">
      <path
         transform="scale(0.8) translate(12.5,0)"
         style="fill-rule:evenodd;stroke:#000000;stroke-width:1pt;stroke-opacity:1;fill:#000000;fill-opacity:1"
         d="M 0.0,0.0 L 5.0,-5.0 L -12.5,0.0 L 5.0,5.0 L 0.0,0.0 z "
         id="path1842" />
    </marker>
    <marker
       style="overflow:visible"
       id="marker1798"
       refX="0.0"
       refY="0.0"
       orient="auto"
       inkscape:stockid="Arrow1Lstart"
       inkscape:isstock="true">
      <path
         transform="scale(0.8) translate(12.5,0)"
         style="fill-rule:evenodd;stroke:#000000;stroke-width:1.0pt"
         d="M 0.0,0.0 L 5.0,-5.0 L -12.5,0.0 L 5.0,5.0 L 0.0,0.0 z "
         id="path1796" />
    </marker>
    <marker
       style="overflow:visible"
       id="marker1722"
       refX="0.0"
       refY="0.0"
       orient="auto"
       inkscape:stockid="Arrow1Lstart"
       inkscape:isstock="true">
      <path
         transform="scale(0.8) translate(12.5,0)"
         style="fill-rule:evenodd;stroke:#000000;stroke-width:1pt;stroke-opacity:1;fill:#000000;fill-opacity:1"
         d="M 0.0,0.0 L 5.0,-5.0 L -12.5,0.0 L 5.0,5.0 L 0.0,0.0 z "
         id="path1720" />
    </marker>
    <marker
       style="overflow:visible"
       id="marker1670"
       refX="0.0"
       refY="0.0"
       orient="auto"
       inkscape:stockid="Arrow1Lstart"
       inkscape:isstock="true">
      <path
         transform="scale(0.8) translate(12.5,0)"
         style="fill-rule:evenodd;stroke:#000000;stroke-width:1pt;stroke-opacity:1;fill:#000000;fill-opacity:1"
         d="M 0.0,0.0 L 5.0,-5.0 L -12.5,0.0 L 5.0,5.0 L 0.0,0.0 z "
         id="path1668" />
    </marker>
    <marker
       style="overflow:visible"
       id="marker1642"
       refX="0.0"
       refY="0.0"
       orient="auto"
       inkscape:stockid="Arrow1Lstart"
       inkscape:isstock="true">
      <path
         transform="scale(0.8) translate(12.5,0)"
         style="fill-rule:evenodd;stroke:#000000;stroke-width:1pt;stroke-opacity:1;fill:#000000;fill-opacity:1"
         d="M 0.0,0.0 L 5.0,-5.0 L -12.5,0.0 L 5.0,5.0 L 0.0,0.0 z "
         id="path1640" />
    </marker>
    <marker
       style="overflow:visible"
       id="Arrow1Lstart"
       refX="0.0"
       refY="0.0"
       orient="auto"
       inkscape:stockid="Arrow1Lstart"
       inkscape:isstock="true">
      <path
         transform="scale(0.8) translate(12.5,0)"
         style="fill-rule:evenodd;stroke:#000000;stroke-width:1pt;stroke-opacity:1;fill:#000000;fill-opacity:1"
         d="M 0.0,0.0 L 5.0,-5.0 L -12.5,0.0 L 5.0,5.0 L 0.0,0.0 z "
         id="path1338" />
    </marker>
    <marker
       style="overflow:visible"
       id="Arrow1Mstart"
       refX="0.0"
       refY="0.0"
       orient="auto"
       inkscape:stockid="Arrow1Mstart"
       inkscape:isstock="true">
      <path
         transform="scale(0.4) translate(10,0)"
         style="fill-rule:evenodd;stroke:#000000;stroke-width:1pt;stroke-opacity:1;fill:#000000;fill-opacity:1"
         d="M 0.0,0.0 L 5.0,-5.0 L -12.5,0.0 L 5.0,5.0 L 0.0,0.0 z "
         id="path1344" />
    </marker>
  </defs>
  <sodipodi:namedview
     id="base"
     pagecolor="#ffffff"
     bordercolor="#666666"
     borderopacity="1.0"
     inkscape:pageopacity="0.0"
     inkscape:pageshadow="2"
     inkscape:zoom="0.8466354"
     inkscape:cx="258.78684"
     inkscape:cy="225.21979"
     inkscape:document-units="px"
     inkscape:current-layer="layer1"
     inkscape:document-rotation="0"
     showgrid="false"
     units="px"
     inkscape:window-width="1251"
     inkscape:window-height="1029"
     inkscape:window-x="650"
     inkscape:window-y="32"
     inkscape:window-maximized="0" />
  <metadata
     id="metadata5">
    <rdf:RDF>
      <cc:Work
         rdf:about="">
        <dc:format>image/svg+xml</dc:format>
        <dc:type
           rdf:resource="http://purl.org/dc/dcmitype/StillImage" />
        <dc:title />
      </cc:Work>
    </rdf:RDF>
  </metadata>
  <g
     inkscape:label="Layer 1"
     inkscape:groupmode="layer"
     id="layer1">
    <path
       id="path843"
       style="display:inline;fill:#00ebff;fill-opacity:1;stroke:#000000;stroke-width:1.32292;stroke-linecap:round;stroke-linejoin:round;stroke-miterlimit:4;stroke-dasharray:none;stroke-opacity:1"
       d="m 82.020832,26.810472 c 3.90856,13.904649 -2.624681,40.794678 -3.135384,48.364923 -0.998432,8.512087 -0.734624,12.973761 0.163339,15.578617 6.810918,10.126128 9.770286,7.614866 13.638556,9.308938 9.110407,1.52659 8.595967,2.25573 17.383247,-11.859938 -2.4666,4.825849 0.0993,13.600538 -5.1874,16.740578 6.13606,1.56254 9.46359,5.2303 12.4229,10.00344 -3.33126,-2.61856 -12.28646,-5.51022 -17.12316,-3.97753 -13.946573,0.46709 -20.967925,3.60794 -36.711741,0.73589 -6.79681,-2.94205 -13.533107,-1.66807 -21.21026,-17.428583 -3.290084,-7.72248 -7.105194,-15.693366 -8.049114,-28.861695 -1.265094,-12.90911 -1.390906,-32.46714 2.829851,-39.495121 h 10e-7 C 42.535332,18.261392 48.282842,12.801163 59.53125,7.9875063 70.831717,12.771032 77.691023,19.813428 82.020833,26.810472"
       sodipodi:nodetypes="ccccccccccccccc" />
    <path
       style="display:inline;fill:#00ebff;stroke:#000000;stroke-width:1.32292;stroke-linecap:round;stroke-linejoin:round;stroke-miterlimit:4;stroke-dasharray:none;stroke-opacity:1;fill-opacity:1"
       d="m 81.074813,54.279853 c 5.239731,1.801205 6.9075,1.928982 9.388734,6.028658 1.63457,2.307638 2.438774,6.715016 1.758282,9.407816 -1.288945,4.260531 5.775473,3.370702 7.669811,6.04166 0.89064,2.133539 -3.057417,6.541605 -5.06888,8.448493 0.457974,-2.12158 2.825927,-6.650659 -0.991999,-7.305489 -2.235441,0.02388 -5.529195,-0.611358 -7.294165,-2.476334 -1.619535,-1.997642 1.227999,-6.187813 -0.26788,-8.464672 -2.43795,-3.261677 -3.908023,-2.532531 -6.702822,-2.257463"
       id="path851"
       sodipodi:nodetypes="ccccccccc" />
    <path
       style="display:inline;fill:#00ebff;stroke:#000000;stroke-width:1.32292;stroke-linecap:round;stroke-linejoin:round;stroke-miterlimit:4;stroke-dasharray:none;stroke-opacity:1;fill-opacity:1"
       d="m 34.48044,54.279852 c -5.239731,1.801205 -6.9075,1.928982 -9.388734,6.028658 -1.634569,2.307638 -2.438773,6.715017 -1.758281,9.407816 1.288943,4.260532 -5.775474,3.370703 -7.669906,6.04166 -0.890651,2.13354 3.057512,6.541606 5.068974,8.448493 -0.457974,-2.12158 -2.825927,-6.650659 0.992,-7.305489 2.235439,0.02388 5.529194,-0.611357 7.294164,-2.476333 1.619535,-1.997642 -1.227999,-6.187813 0.26788,-8.464673 2.43795,-3.261677 3.908023,-2.532531 6.702821,-2.257462"
       id="path851-3"
       sodipodi:nodetypes="ccccccccc" />
  </g>
</svg>
