<svg
   xmlns:dc="http://purl.org/dc/elements/1.1/"
   xmlns:cc="http://creativecommons.org/ns#"
   xmlns:rdf="http://www.w3.org/1999/02/22-rdf-syntax-ns#"
   xmlns:svg="http://www.w3.org/2000/svg"
   xmlns="http://www.w3.org/2000/svg"
   xmlns:sodipodi="http://sodipodi.sourceforge.net/DTD/sodipodi-0.dtd"
   xmlns:inkscape="http://www.inkscape.org/namespaces/inkscape"
   width="450"
   height="450"
   viewBox="0 0 119.0625 119.0625"
   version="1.1"
   id="svg8"
   inkscape:version="1.0.2 (e86c870879, 2021-01-15)"
   sodipodi:docname="pet3.svg">
  <defs
     id="defs2">
    <marker
       style="overflow:visible"
       id="marker1844"
       refX="0.0"
       refY="0.0"
       orient="auto"
       inkscape:stockid="Arrow1Lstart"
       inkscape:isstock="true">
      <path
         transform="scale(0.8) translate(12.5,0)"
         style="fill-rule:evenodd;stroke:#000000;stroke-width:1pt;stroke-opacity:1;fill:#000000;fill-opacity:1"
         d="M 0.0,0.0 L 5.0,-5.0 L -12.5,0.0 L 5.0,5.0 L 0.0,0.0 z "
         id="path1842" />
    </marker>
    <marker
       style="overflow:visible"
       id="marker1798"
       refX="0.0"
       refY="0.0"
       orient="auto"
       inkscape:stockid="Arrow1Lstart"
       inkscape:isstock="true">
      <path
         transform="scale(0.8) translate(12.5,0)"
         style="fill-rule:evenodd;stroke:#000000;stroke-width:1.0pt"
         d="M 0.0,0.0 L 5.0,-5.0 L -12.5,0.0 L 5.0,5.0 L 0.0,0.0 z "
         id="path1796" />
    </marker>
    <marker
       style="overflow:visible"
       id="marker1722"
       refX="0.0"
       refY="0.0"
       orient="auto"
       inkscape:stockid="Arrow1Lstart"
       inkscape:isstock="true">
      <path
         transform="scale(0.8) translate(12.5,0)"
         style="fill-rule:evenodd;stroke:#000000;stroke-width:1pt;stroke-opacity:1;fill:#000000;fill-opacity:1"
         d="M 0.0,0.0 L 5.0,-5.0 L -12.5,0.0 L 5.0,5.0 L 0.0,0.0 z "
         id="path1720" />
    </marker>
    <marker
       style="overflow:visible"
       id="marker1670"
       refX="0.0"
       refY="0.0"
       orient="auto"
       inkscape:stockid="Arrow1Lstart"
       inkscape:isstock="true">
      <path
         transform="scale(0.8) translate(12.5,0)"
         style="fill-rule:evenodd;stroke:#000000;stroke-width:1pt;stroke-opacity:1;fill:#000000;fill-opacity:1"
         d="M 0.0,0.0 L 5.0,-5.0 L -12.5,0.0 L 5.0,5.0 L 0.0,0.0 z "
         id="path1668" />
    </marker>
    <marker
       style="overflow:visible"
       id="marker1642"
       refX="0.0"
       refY="0.0"
       orient="auto"
       inkscape:stockid="Arrow1Lstart"
       inkscape:isstock="true">
      <path
         transform="scale(0.8) translate(12.5,0)"
         style="fill-rule:evenodd;stroke:#000000;stroke-width:1pt;stroke-opacity:1;fill:#000000;fill-opacity:1"
         d="M 0.0,0.0 L 5.0,-5.0 L -12.5,0.0 L 5.0,5.0 L 0.0,0.0 z "
         id="path1640" />
    </marker>
    <marker
       style="overflow:visible"
       id="Arrow1Lstart"
       refX="0.0"
       refY="0.0"
       orient="auto"
       inkscape:stockid="Arrow1Lstart"
       inkscape:isstock="true">
      <path
         transform="scale(0.8) translate(12.5,0)"
         style="fill-rule:evenodd;stroke:#000000;stroke-width:1pt;stroke-opacity:1;fill:#000000;fill-opacity:1"
         d="M 0.0,0.0 L 5.0,-5.0 L -12.5,0.0 L 5.0,5.0 L 0.0,0.0 z "
         id="path1338" />
    </marker>
    <marker
       style="overflow:visible"
       id="Arrow1Mstart"
       refX="0.0"
       refY="0.0"
       orient="auto"
       inkscape:stockid="Arrow1Mstart"
       inkscape:isstock="true">
      <path
         transform="scale(0.4) translate(10,0)"
         style="fill-rule:evenodd;stroke:#000000;stroke-width:1pt;stroke-opacity:1;fill:#000000;fill-opacity:1"
         d="M 0.0,0.0 L 5.0,-5.0 L -12.5,0.0 L 5.0,5.0 L 0.0,0.0 z "
         id="path1344" />
    </marker>
  </defs>
  <sodipodi:namedview
     id="base"
     pagecolor="#ffffff"
     bordercolor="#666666"
     borderopacity="1.0"
     inkscape:pageopacity="0.0"
     inkscape:pageshadow="2"
     inkscape:zoom="2.9887626"
     inkscape:cx="141.6329"
     inkscape:cy="256.51306"
     inkscape:document-units="px"
     inkscape:current-layer="layer1"
     inkscape:document-rotation="0"
     showgrid="false"
     units="px"
     inkscape:window-width="1882"
     inkscape:window-height="1029"
     inkscape:window-x="19"
     inkscape:window-y="32"
     inkscape:window-maximized="0" />
  <metadata
     id="metadata5">
    <rdf:RDF>
      <cc:Work
         rdf:about="">
        <dc:format>image/svg+xml</dc:format>
        <dc:type
           rdf:resource="http://purl.org/dc/dcmitype/StillImage" />
        <dc:title />
      </cc:Work>
    </rdf:RDF>
  </metadata>
  <g
     inkscape:label="Layer 1"
     inkscape:groupmode="layer"
     id="layer1">
    <ellipse
       style="fill:#c884bc;stroke:#000000;stroke-width:1.44075;stroke-linecap:round;stroke-linejoin:round;stroke-dashoffset:26.05;stroke-opacity:1;fill-opacity:1"
       id="path835-3"
       cx="59.53125"
       cy="87.3125"
       rx="25.737959"
       ry="25.737961" />
    <path
       style="fill:#00f2b6;fill-opacity:1;stroke:#000000;stroke-width:1.32292;stroke-linecap:round;stroke-linejoin:round;stroke-miterlimit:4;stroke-dasharray:none;stroke-opacity:1"
       d="m 52.325186,64.568736 c -5.500984,11.812972 -5.837878,32.303149 -0.799871,46.855214 6.395191,2.02572 9.752816,1.91171 15.678971,0.43038 4.912007,-15.184508 3.974511,-36.110924 -0.452884,-47.718196 -5.817366,0.805443 -8.451865,-0.304932 -14.426216,0.432602 z"
       id="path852"
       sodipodi:nodetypes="ccccc" />
    <ellipse
       style="fill:#c884bc;stroke:#000000;stroke-width:1.08056;stroke-linecap:round;stroke-linejoin:round;stroke-dashoffset:26.05;stroke-opacity:1;fill-opacity:1"
       id="path835"
       cx="59.53125"
       cy="46.302082"
       rx="19.303469"
       ry="19.303471" />
    <path
       style="display:inline;fill:#c884bc;fill-opacity:1;stroke:#000000;stroke-width:0.76582;stroke-linecap:round;stroke-linejoin:round;stroke-miterlimit:4;stroke-dasharray:none;stroke-opacity:1"
       d="m 42.461814,74.424973 c -2.873861,-0.990045 -5.656589,-5.407783 -10.069471,-5.154704 -1.784649,0.224509 -4.076258,0.974028 -6.06595,-0.613306 -1.254913,-1.114278 -1.46044,-3.030151 -2.761287,-3.998509 -1.379095,-0.8964 -3.600979,-1.120384 -5.05269,-1.040694 -2.565384,-0.21813 -4.998412,-3.966609 -4.9627,-5.060841 -1.073161,1.031835 0.316679,4.766426 1.160021,5.826006 1.56292,1.302938 6.036915,1.388393 5.724894,3.596972 -0.109889,1.391843 0.971322,2.859956 2.320308,3.985723 2.370321,2.239929 3.598257,2.603188 6.162075,2.386779 5.922867,-0.533897 6.072916,2.789428 9.215825,4.602136"
       id="path851-5"
       sodipodi:nodetypes="ccccccccccc"
       inkscape:label="path851" />
    <path
       style="display:inline;fill:#c884bc;fill-opacity:1;stroke:#000000;stroke-width:0.765821;stroke-linecap:round;stroke-linejoin:round;stroke-miterlimit:4;stroke-dasharray:none;stroke-opacity:1"
       d="m 42.401276,39.005374 c -2.87386,-0.990045 -2.844746,-3.33347 -7.257626,-3.080391 -1.78465,0.224509 -4.07626,0.974028 -6.06595,-0.613306 -1.25491,-1.114278 -1.46044,-3.030151 -2.76129,-3.998509 -1.37909,-0.8964 -3.60098,-1.120384 -5.05269,-1.040694 -2.56538,-0.21813 -2.9227,-2.337053 -2.88698,-3.431285 -1.07316,1.031835 -1.75904,3.13687 -0.9157,4.19645 1.56292,1.302938 6.03692,1.388393 5.7249,3.596972 -0.10989,1.391843 0.97132,2.859956 2.32031,3.985722 2.37032,2.23993 3.59825,2.603189 6.16207,2.38678 5.92287,-0.533897 6.07292,2.789428 9.21583,4.602136"
       id="path851-5-6"
       sodipodi:nodetypes="ccccccccccc"
       inkscape:label="path851" />
    <path
       style="display:inline;fill:#c884bc;fill-opacity:1;stroke:#000000;stroke-width:0.765821;stroke-linecap:round;stroke-linejoin:round;stroke-miterlimit:4;stroke-dasharray:none;stroke-opacity:1"
       d="m 36.451034,91.288293 c -3.001321,-0.480979 -2.034054,-1.10073 -6.337639,-0.0924 -1.719435,0.528127 -3.847972,1.660639 -6.081036,0.439193 -1.427869,-0.881823 -1.959868,-2.733792 -3.407888,-3.463969 -1.512724,-0.645833 -3.74002,-0.484309 -5.156389,-0.156109 -2.56467,0.226374 -4.776449,-1.850503 -4.92948,-2.93457 -0.8796892,1.201044 1.532361,4.145149 2.545385,5.043881 1.763735,1.014693 4.955451,-0.372142 5.027961,1.857189 0.131149,1.390001 1.448765,2.650264 2.971281,3.527224 2.720269,1.798846 3.992386,1.945483 6.480771,1.291316 5.742765,-1.544688 7.216062,1.316125 10.623921,2.561229"
       id="path851-5-7"
       sodipodi:nodetypes="ccccccccccc"
       inkscape:label="path851" />
    <path
       style="display:inline;fill:#c884bc;fill-opacity:1;stroke:#000000;stroke-width:0.765821;stroke-linecap:round;stroke-linejoin:round;stroke-miterlimit:4;stroke-dasharray:none;stroke-opacity:1"
       d="m 76.600689,74.424975 c 2.873859,-0.990045 5.656588,-5.407785 10.06947,-5.154706 1.784649,0.22451 4.076258,0.97403 6.06595,-0.613304 1.254913,-1.114279 1.46044,-3.030151 2.761287,-3.99851 1.379095,-0.8964 3.600975,-1.120383 5.052694,-1.040694 2.56538,-0.21813 4.99841,-3.966609 4.9627,-5.060841 1.07316,1.031835 -0.31668,4.766426 -1.16003,5.826006 -1.56292,1.302938 -6.036909,1.388393 -5.724889,3.596973 0.10989,1.391843 -0.971322,2.859956 -2.320308,3.985723 -2.370321,2.239928 -3.598257,2.603188 -6.162075,2.386777 -5.922867,-0.533894 -6.072916,2.789428 -9.215824,4.602136"
       id="path851-5-5"
       sodipodi:nodetypes="ccccccccccc"
       inkscape:label="path851" />
    <path
       style="display:inline;fill:#c884bc;fill-opacity:1;stroke:#000000;stroke-width:0.765821;stroke-linecap:round;stroke-linejoin:round;stroke-miterlimit:4;stroke-dasharray:none;stroke-opacity:1"
       d="m 76.562168,39.630248 c 2.87386,-0.990045 2.943805,-3.958344 7.356684,-3.705265 1.78465,0.224509 4.07626,0.974028 6.06595,-0.613306 1.25491,-1.114278 1.46044,-3.030151 2.76129,-3.998509 1.37909,-0.8964 3.60098,-1.120384 5.052691,-1.040694 2.565377,-0.21813 2.922697,-2.337053 2.886977,-3.431285 1.07316,1.031835 1.75904,3.13687 0.9157,4.19645 -1.56292,1.302938 -6.036918,1.388393 -5.724898,3.596972 0.10989,1.391843 -0.97132,2.859956 -2.32031,3.985723 -2.37032,2.23993 -3.59825,2.603189 -6.16207,2.38678 -5.922871,-0.533897 -6.072919,2.789428 -9.21583,4.602136"
       id="path851-5-6-3"
       sodipodi:nodetypes="ccccccccccc"
       inkscape:label="path851" />
    <path
       style="display:inline;fill:#c884bc;fill-opacity:1;stroke:#000000;stroke-width:0.765821;stroke-linecap:round;stroke-linejoin:round;stroke-miterlimit:4;stroke-dasharray:none;stroke-opacity:1"
       d="m 82.567915,91.606474 c 3.00132,-0.480978 2.077607,-1.41891 6.381192,-0.410575 1.719435,0.528127 3.847972,1.660638 6.081036,0.439192 1.42787,-0.881822 1.959868,-2.733791 3.407888,-3.463967 1.512717,-0.645835 3.740019,-0.484309 5.156389,-0.15611 2.56467,0.226373 4.77645,-1.850503 4.92948,-2.93457 0.87969,1.201044 -1.53236,4.145148 -2.54539,5.043882 -1.76373,1.014693 -4.95545,-0.372142 -5.02796,1.857187 -0.13115,1.390002 -1.448762,2.650265 -2.971277,3.527224 -2.720269,1.798846 -3.992386,1.945484 -6.480771,1.291317 -5.742765,-1.544688 -7.301104,1.562846 -10.708962,2.807951"
       id="path851-5-7-5"
       sodipodi:nodetypes="ccccccccccc"
       inkscape:label="path851" />
  </g>
</svg>
