<svg
   xmlns:dc="http://purl.org/dc/elements/1.1/"
   xmlns:cc="http://creativecommons.org/ns#"
   xmlns:rdf="http://www.w3.org/1999/02/22-rdf-syntax-ns#"
   xmlns:svg="http://www.w3.org/2000/svg"
   xmlns="http://www.w3.org/2000/svg"
   xmlns:xlink="http://www.w3.org/1999/xlink"
   xmlns:sodipodi="http://sodipodi.sourceforge.net/DTD/sodipodi-0.dtd"
   xmlns:inkscape="http://www.inkscape.org/namespaces/inkscape"
   width="450"
   height="450"
   viewBox="0 0 119.0625 119.0625"
   version="1.1"
   id="svg8"
   inkscape:version="1.0.2 (e86c870879, 2021-01-15)"
   sodipodi:docname="pet4.svg"
   inkscape:label="body">
  <defs
     id="defs2">
    <linearGradient
       inkscape:collect="always"
       id="linearGradient1506">
      <stop
         style="stop-color:#fb87ff;stop-opacity:1"
         offset="0"
         id="stop1502" />
      <stop
         style="stop-color:#008bff;stop-opacity:1"
         offset="1"
         id="stop1504" />
    </linearGradient>
    <marker
       style="overflow:visible"
       id="marker1844"
       refX="0.0"
       refY="0.0"
       orient="auto"
       inkscape:stockid="Arrow1Lstart"
       inkscape:isstock="true">
      <path
         transform="scale(0.8) translate(12.5,0)"
         style="fill-rule:evenodd;stroke:#000000;stroke-width:1pt;stroke-opacity:1;fill:#000000;fill-opacity:1"
         d="M 0.0,0.0 L 5.0,-5.0 L -12.5,0.0 L 5.0,5.0 L 0.0,0.0 z "
         id="path1842" />
    </marker>
    <marker
       style="overflow:visible"
       id="marker1798"
       refX="0.0"
       refY="0.0"
       orient="auto"
       inkscape:stockid="Arrow1Lstart"
       inkscape:isstock="true">
      <path
         transform="scale(0.8) translate(12.5,0)"
         style="fill-rule:evenodd;stroke:#000000;stroke-width:1.0pt"
         d="M 0.0,0.0 L 5.0,-5.0 L -12.5,0.0 L 5.0,5.0 L 0.0,0.0 z "
         id="path1796" />
    </marker>
    <marker
       style="overflow:visible"
       id="marker1722"
       refX="0.0"
       refY="0.0"
       orient="auto"
       inkscape:stockid="Arrow1Lstart"
       inkscape:isstock="true">
      <path
         transform="scale(0.8) translate(12.5,0)"
         style="fill-rule:evenodd;stroke:#000000;stroke-width:1pt;stroke-opacity:1;fill:#000000;fill-opacity:1"
         d="M 0.0,0.0 L 5.0,-5.0 L -12.5,0.0 L 5.0,5.0 L 0.0,0.0 z "
         id="path1720" />
    </marker>
    <marker
       style="overflow:visible"
       id="marker1670"
       refX="0.0"
       refY="0.0"
       orient="auto"
       inkscape:stockid="Arrow1Lstart"
       inkscape:isstock="true">
      <path
         transform="scale(0.8) translate(12.5,0)"
         style="fill-rule:evenodd;stroke:#000000;stroke-width:1pt;stroke-opacity:1;fill:#000000;fill-opacity:1"
         d="M 0.0,0.0 L 5.0,-5.0 L -12.5,0.0 L 5.0,5.0 L 0.0,0.0 z "
         id="path1668" />
    </marker>
    <marker
       style="overflow:visible"
       id="marker1642"
       refX="0.0"
       refY="0.0"
       orient="auto"
       inkscape:stockid="Arrow1Lstart"
       inkscape:isstock="true">
      <path
         transform="scale(0.8) translate(12.5,0)"
         style="fill-rule:evenodd;stroke:#000000;stroke-width:1pt;stroke-opacity:1;fill:#000000;fill-opacity:1"
         d="M 0.0,0.0 L 5.0,-5.0 L -12.5,0.0 L 5.0,5.0 L 0.0,0.0 z "
         id="path1640" />
    </marker>
    <marker
       style="overflow:visible"
       id="Arrow1Lstart"
       refX="0.0"
       refY="0.0"
       orient="auto"
       inkscape:stockid="Arrow1Lstart"
       inkscape:isstock="true">
      <path
         transform="scale(0.8) translate(12.5,0)"
         style="fill-rule:evenodd;stroke:#000000;stroke-width:1pt;stroke-opacity:1;fill:#000000;fill-opacity:1"
         d="M 0.0,0.0 L 5.0,-5.0 L -12.5,0.0 L 5.0,5.0 L 0.0,0.0 z "
         id="path1338" />
    </marker>
    <marker
       style="overflow:visible"
       id="Arrow1Mstart"
       refX="0.0"
       refY="0.0"
       orient="auto"
       inkscape:stockid="Arrow1Mstart"
       inkscape:isstock="true">
      <path
         transform="scale(0.4) translate(10,0)"
         style="fill-rule:evenodd;stroke:#000000;stroke-width:1pt;stroke-opacity:1;fill:#000000;fill-opacity:1"
         d="M 0.0,0.0 L 5.0,-5.0 L -12.5,0.0 L 5.0,5.0 L 0.0,0.0 z "
         id="path1344" />
    </marker>
    <linearGradient
       inkscape:collect="always"
       xlink:href="#linearGradient1506"
       id="linearGradient1508"
       x1="62.95887"
       y1="58.421158"
       x2="7.6137004"
       y2="58.158997"
       gradientUnits="userSpaceOnUse"
       spreadMethod="pad"
       gradientTransform="matrix(0.82891629,0,0,0.56228244,8.4137171,16.244657)" />
  </defs>
  <sodipodi:namedview
     id="base"
     pagecolor="#ffffff"
     bordercolor="#666666"
     borderopacity="1.0"
     inkscape:pageopacity="0.0"
     inkscape:pageshadow="2"
     inkscape:zoom="2.1159019"
     inkscape:cx="283.6543"
     inkscape:cy="367.80726"
     inkscape:document-units="px"
     inkscape:current-layer="svg8"
     inkscape:document-rotation="0"
     showgrid="false"
     units="px"
     inkscape:window-width="1920"
     inkscape:window-height="1080"
     inkscape:window-x="0"
     inkscape:window-y="0"
     inkscape:window-maximized="0" />
  <metadata
     id="metadata5">
    <rdf:RDF>
      <cc:Work
         rdf:about="">
        <dc:format>image/svg+xml</dc:format>
        <dc:type
           rdf:resource="http://purl.org/dc/dcmitype/StillImage" />
        <dc:title />
      </cc:Work>
    </rdf:RDF>
  </metadata>
  <g
     id="g2022"
     inkscape:label="g2022"
     transform="matrix(0.99914151,0,0,1.4599311,-5.1851062,-53.93474)">
    <path
       id="path851-5-6-6"
       style="display:inline;fill:#05fd00;fill-opacity:1;stroke:#000000;stroke-width:1.19289;stroke-linecap:round;stroke-linejoin:round;stroke-miterlimit:4;stroke-dasharray:none;stroke-opacity:1"
       inkscape:label="path851"
       d="m 60.40111,77.144997 c -0.130759,3.684214 3.632582,7.011465 1.711866,10.684052 -1.86359,2.517844 -5.387675,3.92415 -6.104107,7.249218 0.168481,3.624312 7.563705,3.238845 4.576403,7.967203 -0.928081,2.19708 -4.717431,5.63275 -0.357279,6.48024 3.563575,0.67308 -2.674637,1.96455 -4.100698,1.44122 -3.509139,-0.22576 -3.52694,-4.20561 -2.392299,-6.19314 -2.574119,-2.69572 -7.578266,-2.6289 -8.875413,-6.593844 -1.142704,-3.428131 2.327338,-5.599621 4.202044,-7.85742 3.483105,-3.543499 -1.066703,-6.002268 -1.969219,-9.219635" />
    <path
       id="path851-5-62"
       style="display:inline;fill:#05fd00;fill-opacity:1;stroke:#000000;stroke-width:1.26564;stroke-linecap:round;stroke-linejoin:round;stroke-miterlimit:4;stroke-dasharray:none;stroke-opacity:1"
       inkscape:label="path851"
       d="m 47.092406,81.102891 c -2.261425,3.667598 -0.732869,9.118619 -4.613793,11.860949 -3.200332,1.537318 -7.446321,2.048535 -9.389468,5.42256 -1.707981,3.26736 4.332702,6.05494 0.6052,8.99964 -1.912616,1.7383 -4.874455,2.37753 -6.03994,4.87023 -0.01734,1.51686 3.892691,4.5539 0.193124,3.2676 -3.674425,0.27914 -6.973079,-4.6219 -3.143863,-6.96316 2.934542,-1.90706 -0.332551,-5.23006 -1.889127,-6.9942 -1.878139,-2.193003 -0.953001,-5.429748 0.342929,-7.641326 2.761828,-3.29391 8.675621,-3.028565 10.049026,-7.620997 0.466482,-2.220495 -0.708993,-4.557358 0.240948,-6.712363" />
    <path
       id="path851-5-6"
       style="display:inline;fill:#05fd00;fill-opacity:1;stroke:#000000;stroke-width:1.18135;stroke-linecap:round;stroke-linejoin:round;stroke-miterlimit:4;stroke-dasharray:none;stroke-opacity:1"
       inkscape:label="path851"
       d="m 62.486882,84.501975 c 0.814637,3.59103 -2.214066,7.547834 0.316151,10.80523 2.25587,2.131272 5.945561,2.872031 7.227847,5.990995 0.497163,3.56644 -6.715288,4.62561 -2.949067,8.67582 1.289737,1.98196 5.602614,4.63548 1.549575,6.29014 -3.344728,1.34722 2.977433,1.43549 4.240726,0.63774 2.80555,-0.80728 3.284278,-4.5663 0.952763,-6.18103 1.620271,-3.49512 7.052179,-4.01127 7.424937,-8.30434 0.554343,-2.987401 -2.101108,-4.913081 -4.325567,-6.258747 -2.168561,-1.183805 -3.858022,-3.973535 -2.314211,-6.306118 0.628822,-1.250004 1.533689,-2.494032 1.42628,-3.965887" />
    <path
       id="path851-5"
       style="display:inline;fill:#05fd00;fill-opacity:1;stroke:#000000;stroke-width:1.18421;stroke-linecap:round;stroke-linejoin:round;stroke-miterlimit:4;stroke-dasharray:none;stroke-opacity:1"
       inkscape:label="path851"
       d="m 92.376709,80.05673 c 0.80213,3.855462 5.358511,6.292726 4.84479,10.500365 -0.96382,2.844911 -5.758381,4.67348 -3.184703,8.380767 1.211807,2.832488 5.757222,1.749968 6.258314,4.990758 0.44063,2.69281 -2.612617,6.14124 0.17042,8.17566 0.88828,0.31604 4.5444,1.10182 1.55641,1.39885 -3.19764,0.32893 -7.722521,-0.0116 -7.872118,-4.22103 0.178914,-4.1174 -3.547201,-4.83609 -6.540476,-5.67253 -3.163024,-1.70697 -7.377672,-5.906888 -4.313425,-9.461235 1.703768,-2.300361 3.134306,-6.272362 -0.134392,-7.929747 -1.168951,-1.137537 -2.478854,-2.22454 -3.155094,-3.750837" />
  </g>
  <path
     id="path1362"
     style="fill:url(#linearGradient1508);fill-opacity:1;stroke:#000000;stroke-width:1.27037;stroke-linecap:round;stroke-linejoin:round;stroke-miterlimit:4;stroke-dasharray:none;stroke-dashoffset:26.05"
     d="m 57.457542,24.640851 c -0.565603,-0.0028 -1.200221,0.0452 -1.984939,0.107273 -3.004161,0.243235 -4.435001,0.713513 -6.507057,2.225046 -0.07779,0.05704 -0.562307,0.443521 -0.99995,0.833821 -0.249711,-0.992206 -1.663286,-1.714207 -3.079063,-1.991637 -3.316963,-0.649841 -6.577328,-0.269393 -9.764108,0.496906 -1.195662,0.287511 -3.177796,0.636913 -3.87901,1.447536 -1.020551,1.179783 0.811523,3.592665 2.295292,4.865288 -0.143357,0.05967 -0.28596,0.118411 -0.427771,0.178348 -1.373957,-0.122562 -2.832768,-0.01214 -4.159912,0.193167 -1.096872,0.170631 -2.344767,0.328292 -3.317212,0.724024 -0.721525,0.293618 -1.257687,0.687053 -1.846357,1.076313 -0.248809,0.164529 -0.540961,0.306597 -0.782528,0.475734 -0.632788,0.443054 -0.992472,0.970248 -1.376248,1.510413 -0.644566,0.907138 -0.999261,1.624666 -1.184997,2.401476 -0.769195,0.09921 -1.475921,0.142855 -2.21397,0.398378 -2.83191,0.980384 -5.074348,3.264097 -5.858542,5.270234 -0.374236,0.957318 -0.571372,1.959069 0.005,2.903312 0.789402,1.293282 2.698689,2.092339 4.381879,2.822925 0.208729,0.09049 0.415576,0.182892 0.61947,0.278198 0.220432,0.10304 0.392394,0.27184 0.651406,0.319074 -1.67706,0.629635 -3.451621,1.755704 -3.878601,2.986749 -0.128566,0.370624 -0.08612,0.557707 -0.06629,0.936668 0.02766,0.530857 0.161836,1.015717 0.664704,1.449453 0.50163,0.432656 0.993507,0.724747 1.619803,1.085078 1.603824,0.922888 3.377614,1.674013 5.170138,2.423742 0.360777,0.150897 0.720341,0.302968 1.08376,0.451074 0.201565,0.08246 0.425308,0.142524 0.611159,0.239515 0.135401,0.07025 0.227028,0.171534 0.340642,0.257338 -0.299839,0.06628 -0.410487,0.27034 -0.525685,0.452718 -0.499897,0.791403 -0.707444,1.624411 -0.656392,2.479957 0.04148,0.696251 0.280427,1.480357 1.121924,1.96061 0.555483,0.316999 1.124556,0.402092 1.84387,0.512758 2.156368,0.331836 4.244397,0.21893 6.356844,-0.196989 0.562219,-0.110677 1.103239,-0.250143 1.635605,-0.402222 0.398778,0.165876 0.803526,0.32779 1.214021,0.485622 -0.459069,0.526483 -0.727717,0.925693 -1.101603,1.751254 -0.363112,0.80182 -0.697699,1.948122 -0.171765,2.771933 0.391869,0.613767 2.059454,1.113289 2.874916,1.322711 3.177654,0.815859 6.822714,0.593948 9.949583,-0.219776 1.430492,-0.372287 2.424611,-0.776022 3.563679,-1.410799 0.119032,-0.06566 0.487672,-0.295507 0.841436,-0.535274 0.298095,0.02968 0.596848,0.06139 0.896212,0.08742 6.37e-4,0.0019 0.0015,0.0061 0.0021,0.0083 0.291511,0.835825 0.67607,1.849397 1.721072,2.42837 2.2541,1.248855 6.660131,0.736367 9.019336,-0.04594 1.405762,-0.466294 2.426842,-1.172884 3.456621,-1.934559 0.247999,-0.183447 0.50483,-0.363665 0.730657,-0.556422 0.210847,-0.02318 0.421363,-0.0461 0.631503,-0.06909 0.06876,0.551966 0.223947,1.215182 0.534838,1.514766 0.328921,0.317014 1.105321,0.462231 1.575803,0.554203 1.449347,0.283402 2.978766,0.456365 4.491026,0.380043 0.41194,-0.02136 0.829287,-0.04253 1.227704,-0.113884 1.426912,-0.2589 2.603272,-1.088233 2.969508,-2.031111 0.19424,-0.499972 0.184793,-0.91081 0.174298,-1.405876 -6.36e-4,-0.02748 -6.36e-4,-0.02131 -0.0013,-0.04604 0.04182,0.257927 0.136948,0.499806 0.355979,0.659261 0.365855,0.266335 1.026733,0.475081 1.516503,0.581382 2.353306,0.510909 4.757357,-0.186059 6.54564,-1.214576 1.642468,-0.944634 3.04789,-2.142801 3.37033,-3.60047 0.06216,-0.281585 0.02871,-0.569021 0.02983,-0.853559 0.0023,-0.560732 0.01297,-1.158244 -0.192105,-1.711483 0.128871,-0.08297 0.25651,-0.166113 0.38299,-0.249928 0.828589,0.09241 2.266064,0.152475 2.652911,0.158848 0.870306,0.01338 1.812093,0.04517 2.630506,-0.190685 0.819378,-0.234693 1.415695,-0.741626 1.817379,-1.250832 0.517129,-0.655623 1.192688,-1.557882 1.336724,-2.341123 0.08655,-0.470562 -0.01172,-0.931726 -0.126498,-1.395977 -0.211719,-0.856879 -0.453198,-1.780197 -1.020602,-2.58367 0.284782,-0.55413 0.525949,-1.114121 0.723383,-1.678572 0.39534,-0.07037 0.788734,-0.137258 1.14143,-0.214813 2.111259,-0.463827 3.544279,-0.98593 4.209609,-2.494777 0.5278,-1.201542 0.26192,-3.326919 -0.34274,-4.500937 -0.26159,-0.507762 -0.5277,-1.116957 -1.15769,-1.490055 -0.83293,-0.492963 -2.059698,-0.642069 -3.132628,-0.714995 -0.342656,-0.02435 -0.696067,0.02775 -1.032126,-0.02139 -0.197992,-0.02817 -0.377709,-0.09414 -0.55818,-0.158856 -0.04678,-0.08596 -0.09461,-0.172656 -0.143521,-0.258719 0.713547,-1.006981 1.839226,-1.854475 2.398975,-2.922801 1.27487,-2.429273 0.416729,-4.247621 -1.503738,-6.36522 -0.735065,-0.809754 -1.407572,-1.779364 -2.877125,-2.10709 -1.446625,-0.322345 -3.228461,-0.302439 -4.684987,-0.31004 -2.246211,-0.01058 -4.206548,0.02764 -6.424067,0.175849 -0.661828,0.04565 -1.310999,0.16598 -1.975399,0.187355 -0.235228,0.0094 -0.469724,-0.0093 -0.70411,-0.02758 -0.231406,-0.08354 -0.464435,-0.165726 -0.699107,-0.2466 -0.01825,-0.146723 0.01699,-0.290796 0.01699,-0.455477 0,-1.05458 0.0524,-2.104403 -0.840622,-3.04238 -0.469524,-0.493123 -1.263694,-0.637941 -2.035955,-0.848955 -0.947364,-0.258733 -2.035694,-0.731429 -3.096094,-0.731429 -1.798242,0 -6.572255,1.13558 -8.108183,1.699682 -0.232326,0.08496 -0.429825,0.176671 -0.607013,0.270236 -0.861461,-0.08474 -1.727987,-0.155322 -2.598183,-0.210722 -0.374519,-0.994494 -0.92995,-1.908498 -2.174576,-2.602881 -1.433,-0.799584 -2.342176,-1.038115 -3.58646,-1.043162 z"
     sodipodi:nodetypes="ssscsssccsssssccsssscssssssscsssssccssssscccsssccsssssscssssccccssssccsssscsccssssssccsssssccss" />
  <g
     id="g2029"
     transform="translate(0.42471747,-0.2138808)">
    <path
       id="path1841"
       style="opacity:1;fill:#008bff;fill-opacity:1;stroke:#000000;stroke-width:1.86081;stroke-linecap:round;stroke-linejoin:round;stroke-miterlimit:4;stroke-dasharray:none;stroke-dashoffset:26.05"
       d="m 31.857641,15.544694 c 0.571335,15.240092 -25.9185238,8.679759 -17.146777,-4.837152 4.6591,-7.5543387 17.804219,-4.6676424 17.146777,4.837152 z" />
    <path
       id="path1841-2"
       style="fill:#008bff;fill-opacity:1;stroke:#000000;stroke-width:0.93407;stroke-linecap:round;stroke-linejoin:round;stroke-miterlimit:4;stroke-dasharray:none;stroke-dashoffset:26.05"
       d="M 16.038518,28.528828 C 11.293753,42.399133 1.621673,16.902753 14.932284,25.555609 c 0.738192,0.900049 1.043488,1.818031 1.106234,2.973219 z" />
    <path
       id="path1841-7"
       style="fill:#fb87ff;fill-opacity:1;stroke:#000000;stroke-width:1.86081;stroke-linecap:round;stroke-linejoin:round;stroke-miterlimit:4;stroke-dasharray:none;stroke-dashoffset:26.05"
       d="m 112.77886,43.735561 c 0.57134,15.240091 -25.918522,8.679758 -17.146776,-4.837151 4.659096,-7.554337 17.804236,-4.667648 17.146776,4.837151 z" />
    <path
       id="path1841-7-0"
       style="fill:#fb87ff;fill-opacity:1;stroke:#000000;stroke-width:1.40434;stroke-linecap:round;stroke-linejoin:round;stroke-miterlimit:4;stroke-dasharray:none;stroke-dashoffset:26.05"
       d="m 92.480318,23.104712 c -0.534545,14.35944 -24.383546,1.468617 -10.134872,-6.14582 4.345775,-2.104493 10.555662,0.873076 10.134872,6.14582 z" />
    <path
       id="path1841-7-0-9"
       style="fill:#fb87ff;fill-opacity:1;stroke:#000000;stroke-width:1.02062;stroke-linecap:round;stroke-linejoin:round;stroke-miterlimit:4;stroke-dasharray:none;stroke-dashoffset:26.05"
       d="M 106.23236,16.485231 C 98.750176,32.385745 91.73869,0.86537453 106.08479,14.908904 Z" />
  </g>
  <path
     id="path2085-2"
     style="fill:none;stroke:#000000;stroke-width:2.22134;stroke-linecap:round;stroke-linejoin:round;stroke-miterlimit:4;stroke-dasharray:none;stroke-opacity:1"
     d="m 75.618683,13.585466 c 0.781407,0.105918 3.4806,0.47179 4.048789,0.548807 m -1.246986,-3.080737 c 0.72076,0.165593 3.011389,0.69186 3.435944,0.789401 m -0.732305,-2.5926046 2.084714,0.1160593 2.084714,0.1160583 0.0016,9.63e-5 M 65.814083,28.762656 C 68.695623,21.847592 76.194397,15.195677 83.66128,8.838854 m -40.32153,7.169935 c -0.824144,0.169895 -3.670991,0.756628 -4.270259,0.880144 m 2.22336,-3.218956 c -0.781361,0.225421 -3.26459,0.941825 -3.724841,1.074606 m 1.550036,-2.683508 -2.14681,0.284595 -2.146811,0.284597 -0.0016,2.04e-4 M 48.532423,30.588649 C 47.77185,23.818653 42.254658,17.685148 36.677714,11.847844" />
</svg>
