<svg xmlns="http://www.w3.org/2000/svg" id="gitpets-wrapper" x="0" y="0" width="350" height="150" viewBox="0 0 350 150">

    <style>
    #gitpets-wrapper {
        border-radius: 5px;
    }
    @keyframes gitpets-meter-animation {
        from {
            width: 0px;
        }
    }
    .gitpets-meter-bar{
        animation: gitpets-meter-animation 1s forwards ease-in-out;
    }
    </style>

    <rect x="5" y="5" rx="4.5" width="190" height="40" fill="white" fill-opacity="1"/>
    <rect x="5" y="55" rx="4.5" width="190" height="90" fill="white" fill-opacity="1"/>
    <rect x="205" y="5" rx="4.5" width="140" height="140" fill="white" fill-opacity="1"/>

    <text x="100" y="35" text-anchor="middle" font-family="Monospace" font-size="20px" fill="dimgray">{{ pet.name }}</text>
    <text x="100" y="140" text-anchor="middle" font-family="Segoe UI,Helvetica,Arial,sans-serif,Apple Color Emoji,Segoe UI Emoji" font-weight="bold" font-size="10px" fill="grey" text-decoration="underline">Visit this GitPet</text>


    <svg x="10" y="62" width="16px" height="16px" viewBox="0 0 398 368">
        <g transform="translate(-102 -163)">
        <path d="m493 375c-15 69-52 130-132 155-20 6-43-10-69-10-27-0.4-50 14-71 6-72-27-96-82-112-150-13-53-12-115 25-142 63-46 113-8 160-8 69-0.5 93-55 169 13 43 38 40 86 29 137z" fill="lightgreen"/>
        <path d="m218 165s19 42 49 60c11 1 21 3 30 0-29-21-37-62-37-62z" fill="lightgreen"/>
        </g>
    </svg>

    <svg x="10" y="87" width="16px" height="16px" viewBox="0 0 720 720" fill="none">
        <path d="m180 45c-99 0-180 81-180 180 0 48 19 91 49 124l310 326 315-329c31-38 42-70 46-121 0-99-81-180-180-180-92 0-167 68-179 157h-3c-11-88-87-157-179-157z" fill="pink"/>
    </svg>

    <svg x="10" y="112" width="16px" height="16px" viewBox="0 0 2048 2048">
        <g transform="translate(0 996)">
        <g transform="matrix(1.3 0 0 1.3 -304 -8.42)" fill-rule="evenodd">
        <path transform="translate(0 -996)" d="m876 1564c-16.8 0-30.3 13.5-30.3 30.3 0 16.8 13.5 30.3 30.3 30.3h297c16.8 0 30.3-13.5 30.3-30.3 0-16.8-13.5-30.3-30.3-30.3h-297zm0.281 92.7c-16.8 0-30.3 13.5-30.3 30.3s13.5 30.3 30.3 30.3h296c16.8 0 30.3-13.5 30.3-30.3s-13.5-30.3-30.3-30.3h-296zm65.3 92.5c-16.9 0-30.4 13.6-30.4 30.4 0 16.9 13.6 30.4 30.4 30.4h166c16.9 0 30.4-13.6 30.4-30.4 0-16.9-13.6-30.4-30.4-30.4h-166z" fill="lightblue"/>
        <path transform="translate(0 -996)" d="m1024 238c-306 0-554 248-554 554 0 410 375 451 375 739h358c0-289 375-330 375-739 0-306-248-554-554-554z" fill="lightblue" stroke-width="7.67"/>
        </g>
        </g>
    </svg>

    <rect id="gitpets-food-meter" x="30" y="65" rx="1" width="160" height="10" opacity="0.3" fill="lightgreen" />
    <rect id="gitpets-food-qty" class="gitpets-meter-bar" x="30" y="65" rx="1" width="{{ pet.food }}" height="10" fill="lightgreen" />
    <rect id="gitpets-love-meter" x="30" y="90" rx="1" width="160" height="10" opacity="0.3" fill="pink" />
    <rect id="gitpets-love-qty" class="gitpets-meter-bar" x="30" y="90" rx="1" width="{{ pet.love }}" height="10" fill="pink" />
    <rect id="gitpets-play-meter" x="30" y="115" rx="1" width="160" height="10" opacity="0.3" fill="lightblue" />
    <rect id="gitpets-play-qty" class="gitpets-meter-bar" x="30" y="115" rx="1" width="{{ pet.play }}" height="10" fill="lightblue" />

    <svg xmlns="http://www.w3.org/2000/svg" x="205" y="5" width="140px" height="140px" viewBox="0 0 450 450">
        {% include "pet" + pet.species + ".svg" %}
    </svg>

    <svg xmlns="http://www.w3.org/2000/svg" x="255" y="40" width="40px" height="40px" viewBox="0 0 150 150">
        {% include pet.mood + ".svg" %}
    </svg>

</svg>
